<svg width="0" height="0" class="hidden">
  <symbol fill="rgb(235, 57, 25)" version="1.1" id="facebook" xmlns="http://www.w3.org/2000/svg" xmlns:xlink="http://www.w3.org/1999/xlink" xml:space="preserve" viewBox="0 0 455 455">
    <path d="M0,0v455h455V0H0z M301.004,125.217H265.44
	c-7.044,0-14.153,7.28-14.153,12.696v36.264h49.647c-1.999,27.807-6.103,53.235-6.103,53.235h-43.798V385h-65.266V227.395h-31.771
	v-53.029h31.771v-43.356c0-7.928-1.606-61.009,66.872-61.009h48.366V125.217z"></path>
  </symbol>
  <symbol fill="rgb(235, 57, 25)" version="1.1" id="instagram-logo" xmlns="http://www.w3.org/2000/svg" xmlns:xlink="http://www.w3.org/1999/xlink" xml:space="preserve" viewBox="0 0 169.063 169.063">
    <g>
      <path d="M122.406,0H46.654C20.929,0,0,20.93,0,46.655v75.752c0,25.726,20.929,46.655,46.654,46.655h75.752
		c25.727,0,46.656-20.93,46.656-46.655V46.655C169.063,20.93,148.133,0,122.406,0z M154.063,122.407
		c0,17.455-14.201,31.655-31.656,31.655H46.654C29.2,154.063,15,139.862,15,122.407V46.655C15,29.201,29.2,15,46.654,15h75.752
		c17.455,0,31.656,14.201,31.656,31.655V122.407z"></path>
      <path d="M84.531,40.97c-24.021,0-43.563,19.542-43.563,43.563c0,24.02,19.542,43.561,43.563,43.561s43.563-19.541,43.563-43.561
		C128.094,60.512,108.552,40.97,84.531,40.97z M84.531,113.093c-15.749,0-28.563-12.812-28.563-28.561
		c0-15.75,12.813-28.563,28.563-28.563s28.563,12.813,28.563,28.563C113.094,100.281,100.28,113.093,84.531,113.093z"></path>
      <path d="M129.921,28.251c-2.89,0-5.729,1.17-7.77,3.22c-2.051,2.04-3.23,4.88-3.23,7.78c0,2.891,1.18,5.73,3.23,7.78
		c2.04,2.04,4.88,3.22,7.77,3.22c2.9,0,5.73-1.18,7.78-3.22c2.05-2.05,3.22-4.89,3.22-7.78c0-2.9-1.17-5.74-3.22-7.78
		C135.661,29.421,132.821,28.251,129.921,28.251z"></path>
    </g>
  </symbol>
  <svg width="0" height="0" class="hidden">
  <symbol fill="none" xmlns="http://www.w3.org/2000/svg" viewBox="0 0 24 24" id="burger-menu">
    <path d="M4 18L20 18" stroke="rgb(235, 57, 25)" stroke-width="2" stroke-linecap="round"></path>
    <path d="M4 12L20 12" stroke="rgb(235, 57, 25)" stroke-width="2" stroke-linecap="round"></path>
    <path d="M4 6L20 6" stroke="rgb(235, 57, 25)" stroke-width="2" stroke-linecap="round"></path>
  </symbol>
</svg>
<svg width="0" height="0" class="hidden">
  <symbol fill="rgb(235, 57, 25)" version="1.1" id="phone-call" xmlns="http://www.w3.org/2000/svg" xmlns:xlink="http://www.w3.org/1999/xlink" xml:space="preserve" viewBox="0 0 473.806 473.806">
    <g>
      <g>
        <path d="M374.456,293.506c-9.7-10.1-21.4-15.5-33.8-15.5c-12.3,0-24.1,5.3-34.2,15.4l-31.6,31.5c-2.6-1.4-5.2-2.7-7.7-4
			c-3.6-1.8-7-3.5-9.9-5.3c-29.6-18.8-56.5-43.3-82.3-75c-12.5-15.8-20.9-29.1-27-42.6c8.2-7.5,15.8-15.3,23.2-22.8
			c2.8-2.8,5.6-5.7,8.4-8.5c21-21,21-48.2,0-69.2l-27.3-27.3c-3.1-3.1-6.3-6.3-9.3-9.5c-6-6.2-12.3-12.6-18.8-18.6
			c-9.7-9.6-21.3-14.7-33.5-14.7s-24,5.1-34,14.7c-0.1,0.1-0.1,0.1-0.2,0.2l-34,34.3c-12.8,12.8-20.1,28.4-21.7,46.5
			c-2.4,29.2,6.2,56.4,12.8,74.2c16.2,43.7,40.4,84.2,76.5,127.6c43.8,52.3,96.5,93.6,156.7,122.7c23,10.9,53.7,23.8,88,26
			c2.1,0.1,4.3,0.2,6.3,0.2c23.1,0,42.5-8.3,57.7-24.8c0.1-0.2,0.3-0.3,0.4-0.5c5.2-6.3,11.2-12,17.5-18.1c4.3-4.1,8.7-8.4,13-12.9
			c9.9-10.3,15.1-22.3,15.1-34.6c0-12.4-5.3-24.3-15.4-34.3L374.456,293.506z M410.256,398.806
			C410.156,398.806,410.156,398.906,410.256,398.806c-3.9,4.2-7.9,8-12.2,12.2c-6.5,6.2-13.1,12.7-19.3,20
			c-10.1,10.8-22,15.9-37.6,15.9c-1.5,0-3.1,0-4.6-0.1c-29.7-1.9-57.3-13.5-78-23.4c-56.6-27.4-106.3-66.3-147.6-115.6
			c-34.1-41.1-56.9-79.1-72-119.9c-9.3-24.9-12.7-44.3-11.2-62.6c1-11.7,5.5-21.4,13.8-29.7l34.1-34.1c4.9-4.6,10.1-7.1,15.2-7.1
			c6.3,0,11.4,3.8,14.6,7c0.1,0.1,0.2,0.2,0.3,0.3c6.1,5.7,11.9,11.6,18,17.9c3.1,3.2,6.3,6.4,9.5,9.7l27.3,27.3
			c10.6,10.6,10.6,20.4,0,31c-2.9,2.9-5.7,5.8-8.6,8.6c-8.4,8.6-16.4,16.6-25.1,24.4c-0.2,0.2-0.4,0.3-0.5,0.5
			c-8.6,8.6-7,17-5.2,22.7c0.1,0.3,0.2,0.6,0.3,0.9c7.1,17.2,17.1,33.4,32.3,52.7l0.1,0.1c27.6,34,56.7,60.5,88.8,80.8
			c4.1,2.6,8.3,4.7,12.3,6.7c3.6,1.8,7,3.5,9.9,5.3c0.4,0.2,0.8,0.5,1.2,0.7c3.4,1.7,6.6,2.5,9.9,2.5c8.3,0,13.5-5.2,15.2-6.9
			l34.2-34.2c3.4-3.4,8.8-7.5,15.1-7.5c6.2,0,11.3,3.9,14.4,7.3c0.1,0.1,0.1,0.1,0.2,0.2l55.1,55.1
			C420.456,377.706,420.456,388.206,410.256,398.806z"></path>
        <path d="M256.056,112.706c26.2,4.4,50,16.8,69,35.8s31.3,42.8,35.8,69c1.1,6.6,6.8,11.2,13.3,11.2c0.8,0,1.5-0.1,2.3-0.2
			c7.4-1.2,12.3-8.2,11.1-15.6c-5.4-31.7-20.4-60.6-43.3-83.5s-51.8-37.9-83.5-43.3c-7.4-1.2-14.3,3.7-15.6,11
			S248.656,111.506,256.056,112.706z"></path>
        <path d="M473.256,209.006c-8.9-52.2-33.5-99.7-71.3-137.5s-85.3-62.4-137.5-71.3c-7.3-1.3-14.2,3.7-15.5,11
			c-1.2,7.4,3.7,14.3,11.1,15.6c46.6,7.9,89.1,30,122.9,63.7c33.8,33.8,55.8,76.3,63.7,122.9c1.1,6.6,6.8,11.2,13.3,11.2
			c0.8,0,1.5-0.1,2.3-0.2C469.556,223.306,474.556,216.306,473.256,209.006z"></path>
      </g>
    </g>
  </symbol>
</svg>
<svg width="0" height="0" class="hidden">
  <symbol fill="rgb(235, 57, 25)" version="1.1" id="repair-tools" xmlns="http://www.w3.org/2000/svg" xmlns:xlink="http://www.w3.org/1999/xlink" xml:space="preserve" viewBox="0 0 442 442">
    <g>
      <path d="M232.307,138.009c-3.904,3.906-3.904,10.237,0.002,14.143s10.238,3.905,14.142-0.002l8.257-8.26
		c2.97-2.971,3.767-7.481,1.994-11.29c-5.51-11.84-8.304-24.089-8.304-36.408c0-25.079,10.917-48.7,29.331-65.02l0.032,65.461
		c0.001,3.279,1.611,6.35,4.307,8.217l47.446,32.854c3.423,2.37,7.958,2.372,11.382,0.002l47.463-32.837
		c2.7-1.868,4.311-4.941,4.311-8.225l-0.007-65.457c18.412,16.305,29.33,39.907,29.336,64.965c0,23.19-9.029,44.993-25.425,61.392
		c-16.383,16.387-38.159,25.408-61.325,25.408c-0.022,0-0.045,0-0.068,0c-7.971-0.006-23.618-3.865-28.975-5.352
		c-3.473-0.966-7.199,0.015-9.748,2.563l-30.402,30.403c-3.905,3.905-3.905,10.237,0,14.143c1.953,1.952,4.512,2.929,7.071,2.929
		s5.119-0.977,7.071-2.929l26.353-26.354c7.347,1.817,19.976,4.591,28.614,4.597c0.03,0,0.055,0,0.084,0
		c28.505-0.001,55.307-11.104,75.467-31.268c20.172-20.176,31.281-47,31.281-75.534c-0.009-38.434-20.863-74.074-54.423-93.013
		c-3.096-1.747-6.887-1.72-9.958,0.073c-3.07,1.793-4.958,5.081-4.957,8.637l0.008,79.557l-37.46,25.916L297.76,91.387
		l-0.039-79.563c-0.002-3.555-1.891-6.842-4.961-8.633c-3.07-1.792-6.861-1.817-9.957-0.069
		c-33.557,18.956-54.403,54.618-54.403,93.069c0,12.988,2.48,25.854,7.383,38.343L232.307,138.009z"></path>
      <path d="M205.828,270.797L67.106,409.524c-5.213,5.216-12.143,8.09-19.513,8.095c-0.005,0-0.009,0-0.015,0
		c-7.368-0.001-14.299-2.873-19.511-8.085c-5.211-5.217-8.077-12.156-8.068-19.541c0.008-7.363,2.879-14.275,8.097-19.476
		l119.319-119.33c3.905-3.905,3.905-10.236,0-14.142c-3.905-3.904-10.237-3.905-14.142,0.001L13.967,356.364
		C4.975,365.325,0.015,377.26,0,389.97c-0.015,12.731,4.928,24.699,13.922,33.703c8.994,8.994,20.946,13.946,33.656,13.946
		c0.009,0,0.018,0,0.026,0c12.711-0.007,24.661-4.964,33.647-13.955L219.97,284.94c3.905-3.905,3.905-10.237,0-14.143
		C216.064,266.893,209.733,266.893,205.828,270.797z"></path>
      <path d="M47.436,377.851c-3.294,0.002-6.388,1.289-8.672,3.585c-4.807,4.777-4.831,12.583-0.054,17.398
		c0.012,0.013,0.024,0.024,0.036,0.037c2.395,2.389,5.539,3.585,8.688,3.585c3.156,0,6.317-1.202,8.73-3.61
		c4.786-4.809,4.772-12.615-0.011-17.383c-2.325-2.33-5.417-3.612-8.709-3.612C47.442,377.851,47.439,377.851,47.436,377.851z"></path>
      <path d="M374.381,327.157c-1.036-1.035-2.286-1.83-3.662-2.33l-28.677-10.398l-103.588-103.59l16.743-16.742
		c3.905-3.905,3.906-10.237,0-14.143c-2.964-2.962-7.325-3.678-10.963-2.144L87.552,21.146C78.076,11.639,65.456,6.395,52.017,6.379
		c-0.02,0-0.038,0-0.058,0c-13.439,0-26.071,5.226-35.576,14.72C6.866,30.616,1.629,43.264,1.637,56.714
		c0.007,13.439,5.248,26.075,14.755,35.577l156.684,156.677c-1.534,3.637-0.82,7.998,2.144,10.962
		c3.906,3.904,10.238,3.906,14.142,0l16.739-16.739L309.69,346.779l10.399,28.678c0.499,1.376,1.294,2.627,2.33,3.662l58.124,58.123
		c1.953,1.952,4.512,2.929,7.071,2.929s5.119-0.977,7.071-2.929l37.819-37.819c1.875-1.876,2.929-4.419,2.929-7.071
		s-1.054-5.195-2.929-7.071L374.381,327.157z M217.239,203.768c-0.021,0.021-0.043,0.044-0.064,0.065L186.7,234.308L30.532,78.147
		c-5.732-5.729-8.891-13.344-8.895-21.443c-0.004-8.104,3.152-15.726,8.884-21.458c5.725-5.719,13.337-8.866,21.438-8.866
		c0.012,0,0.024,0,0.035,0c8.093,0.009,15.689,3.165,21.403,8.897l156.175,156.159l-12.268,12.268
		C217.283,203.725,217.261,203.746,217.239,203.768z M387.614,416.029l-49.48-49.48l-10.399-28.678
		c-0.499-1.376-1.294-2.627-2.33-3.662l-105.161-105.16l4.068-4.067l105.16,105.161c1.036,1.035,2.286,1.83,3.662,2.33
		l28.677,10.398l49.48,49.48L387.614,416.029z"></path>
      <path d="M58.981,49.573c-3.905-3.904-10.237-3.904-14.142,0c-3.905,3.905-3.905,10.237,0,14.143l137.951,137.95
		c1.952,1.952,4.512,2.929,7.071,2.929s5.119-0.977,7.071-2.929c3.905-3.905,3.905-10.237,0-14.143L58.981,49.573z"></path>
    </g>
  </symbol>
</svg>
<svg width="0" height="0" class="hidden">
  <symbol version="1.1" id="ef2c01de1b6cf4e8cdb0e1c15b9b24c2" xmlns="http://www.w3.org/2000/svg" xmlns:xlink="http://www.w3.org/1999/xlink" x="0px" y="0px" enable-background="new 0 0 1200 1200" xml:space="preserve" viewBox="0 0 1200 1200">
    <g>
      <path fill="rgb(235, 57, 25)" d="M1051.567,1089.082h-903.11c-38.362,0-69.953-16.703-86.786-45.68
		c-16.773-29.047-15.412-64.743,3.722-98.041L517.04,163.205c19.19-33.223,49.42-52.287,82.956-52.287
		c33.55,0,63.799,19.064,82.989,52.361l451.557,782.082c19.153,33.153,20.607,68.845,3.811,97.967
		C1121.523,1072.379,1089.929,1089.082,1051.567,1089.082z M186.875,971.07h826.237L600.033,255.546L186.875,971.07z"></path>
      <g>
        <g>
          <path fill="rgb(235, 57, 25)" d="M639.41,884.794c-9.694,9.586-21.421,14.416-34.93,14.416c-13.817,0-25.545-4.83-35.168-14.416
				c-9.605-9.697-14.416-21.351-14.416-35.224c0-13.579,4.811-25.236,14.416-35.149c9.623-9.805,21.35-14.743,35.168-14.743
				c13.509,0,25.236,4.867,34.93,14.524c9.787,9.768,14.635,21.57,14.635,35.369C654.045,863.443,649.196,875.096,639.41,884.794z"></path>
        </g>
        <path fill="rgb(235, 57, 25)" d="M568.26,756.396l69.845,0.796l30.572-172.66c0,0,17.521-97.825-70.317-95.356
			c-80.267,2.324-67.755,96.628-67.755,96.628L568.26,756.396z"></path>
      </g>
    </g>
  </symbol>
</svg>
<svg width="0" height="0" class="hidden">
  <symbol version="1.0" xmlns="http://www.w3.org/2000/svg" preserveAspectRatio="xMidYMid meet" viewBox="0 0 1280.000000 1280.000000" id="1630709">
    <metadata>Created by potrace 1.15, written by Peter Selinger 2001-2017</metadata>
    <g transform="translate(0.000000,1280.000000) scale(0.100000,-0.100000)" fill="rgb(235, 57, 25)" stroke="none">
      <path d="M5385 12786 c-92 -29 -158 -87 -199 -175 -21 -45 -21 -56 -24 -687
l-3 -640 -102 -29 c-388 -108 -835 -298 -1166 -495 l-85 -51 -465 465 c-439
437 -469 465 -521 482 -82 27 -173 23 -246 -10 -53 -24 -130 -98 -730 -699
-746 -747 -718 -714 -719 -847 0 -142 -17 -120 494 -633 l456 -458 -24 -42
c-132 -236 -243 -467 -329 -682 -59 -148 -154 -435 -189 -570 l-18 -70 -640
-5 -640 -5 -57 -28 c-65 -32 -121 -89 -152 -156 l-21 -46 0 -1005 0 -1005 28
-57 c32 -65 89 -121 156 -152 45 -21 56 -21 691 -24 l645 -3 43 -151 c104
-365 300 -824 477 -1112 l44 -71 -57 -60 c-31 -33 -179 -184 -327 -335 -610
-619 -580 -582 -580 -725 1 -63 6 -90 24 -130 19 -40 160 -187 695 -722 460
-460 685 -678 714 -692 90 -45 197 -47 290 -5 23 11 208 188 497 476 l461 458
114 -65 c328 -187 711 -348 1077 -453 l162 -47 3 -645 c3 -635 3 -646 24 -691
31 -67 87 -124 152 -156 l57 -28 1005 0 1005 0 57 28 c65 32 121 89 152 156
21 45 21 56 24 687 l3 642 62 17 c408 111 818 282 1186 493 l114 65 456 -460
c514 -519 499 -507 636 -507 63 0 91 5 130 23 73 34 1390 1352 1426 1426 34
71 34 200 0 265 -15 30 -174 197 -482 506 l-460 460 56 95 c85 142 235 454
308 639 66 166 148 414 182 547 l19 72 645 3 c636 3 647 3 692 24 67 31 124
87 156 152 l28 57 0 1005 0 1005 -28 57 c-32 65 -89 121 -156 152 -45 21 -56
21 -687 24 l-642 3 -11 44 c-91 360 -280 819 -490 1185 l-71 124 464 466 c520
521 502 498 500 640 -1 134 23 106 -722 852 -595 595 -673 670 -726 694 -73
33 -164 37 -246 10 -52 -17 -82 -45 -520 -482 l-466 -464 -114 66 c-326 187
-741 360 -1117 465 l-122 34 -3 645 c-3 637 -3 646 -25 692 -30 66 -95 132
-156 159 l-52 24 -990 2 c-779 1 -999 -1 -1030 -11z m1160 -4527 c580 -49
1087 -347 1410 -829 71 -106 174 -315 215 -438 220 -653 55 -1381 -425 -1881
-557 -580 -1414 -740 -2135 -400 -392 186 -696 485 -885 874 -110 224 -163
422 -185 680 -14 162 -1 345 35 520 166 798 849 1403 1665 1474 137 12 171 12
305 0z"></path>
    </g>
  </symbol>
</svg>
</svg>